<?xml version="1.0" encoding="UTF-8" standalone="no"?>
<svg width="512" height="512" viewBox="0 0 512 512" fill="none" xmlns="http://www.w3.org/2000/svg">
  <!-- Blue gradient background with rounded corners -->
  <rect width="512" height="512" rx="100" fill="url(#blue-gradient)"/>
  
  <!-- House outline -->
  <path d="M130 170 L256 90 L382 170 L382 370 L130 370 Z" stroke="white" stroke-width="20" fill="none"/>
  
  <!-- Chimney -->
  <path d="M340 170 L340 120 L382 120 L382 170" stroke="white" stroke-width="20" fill="none"/>
  
  <!-- Light bulb -->
  <path d="M180 280 A30 40 0 1 0 180 200 A30 40 0 1 0 180 280 Z" fill="#7DF9FF"/>
  <path d="M170 280 L190 280 L190 290 L170 290 Z" fill="#7DF9FF"/>
  <path d="M172 295 L188 295 L188 300 L172 300 Z" fill="#7DF9FF"/>
  
  <!-- Socket -->
  <rect x="320" y="230" width="40" height="40" rx="5" fill="#7DF9FF"/>
  <circle cx="330" cy="245" r="5" fill="white"/>
  <circle cx="350" cy="245" r="5" fill="white"/>
  
  <!-- Fan -->
  <circle cx="256" cy="180" r="12" fill="#7DF9FF"/>
  <path d="M256 168 L256 145" stroke="#7DF9FF" stroke-width="10" stroke-linecap="round"/>
  <path d="M256 192 L256 215" stroke="#7DF9FF" stroke-width="10" stroke-linecap="round"/>
  <path d="M244 180 L221 180" stroke="#7DF9FF" stroke-width="10" stroke-linecap="round"/>
  <path d="M268 180 L291 180" stroke="#7DF9FF" stroke-width="10" stroke-linecap="round"/>
  <path d="M245 169 L228 152" stroke="#7DF9FF" stroke-width="10" stroke-linecap="round"/>
  <path d="M267 191 L284 208" stroke="#7DF9FF" stroke-width="10" stroke-linecap="round"/>
  <path d="M245 191 L228 208" stroke="#7DF9FF" stroke-width="10" stroke-linecap="round"/>
  <path d="M267 169 L284 152" stroke="#7DF9FF" stroke-width="10" stroke-linecap="round"/>

  <!-- Bluetooth symbol -->
  <path d="M256 330 L256 260 L290 295 L256 330 L290 365 L256 400 L256 330 L222 365 L256 330 L222 295 Z" fill="white"/>
  
  <!-- Gradient definition -->
  <defs>
    <linearGradient id="blue-gradient" x1="0" y1="0" x2="512" y2="512" gradientUnits="userSpaceOnUse">
      <stop offset="0%" stop-color="#00BFFF"/>
      <stop offset="100%" stop-color="#002D5A"/>
    </linearGradient>
  </defs>
</svg>